<?xml version="1.0" encoding="UTF-8"?>
<svg width="1900px" height="2085px" viewBox="0 0 1900 2085" version="1.1" xmlns="http://www.w3.org/2000/svg" xmlns:xlink="http://www.w3.org/1999/xlink">
    <!-- Generator: Sketch 47 (45396) - http://www.bohemiancoding.com/sketch -->
    <title>color-schemes</title>
    <desc>Created with Sketch.</desc>
    <defs>
        <path d="M421,842 C188.48812,842 0,653.51188 0,421 C0,188.48812 188.48812,0 421,0 C653.51188,0 842,188.48812 842,421 C842,653.51188 653.51188,842 421,842 Z M423,549 C494.797017,549 553,490.797017 553,419 C553,347.202983 494.797017,289 423,289 C351.202983,289 293,347.202983 293,419 C293,490.797017 351.202983,549 423,549 Z" id="path-1"></path>
        <circle id="path-3" cx="423" cy="419" r="301"></circle>
        <circle id="path-4" cx="423" cy="419" r="201"></circle>
        <path d="M421,842 C188.48812,842 0,653.51188 0,421 C0,188.48812 188.48812,0 421,0 C653.51188,0 842,188.48812 842,421 C842,653.51188 653.51188,842 421,842 Z M423,720 C589.23771,720 724,585.23771 724,419 C724,252.76229 589.23771,118 423,118 C256.76229,118 122,252.76229 122,419 C122,585.23771 256.76229,720 423,720 Z" id="path-5"></path>
        <path d="M421,842 C188.48812,842 0,653.51188 0,421 C0,188.48812 188.48812,0 421,0 C653.51188,0 842,188.48812 842,421 C842,653.51188 653.51188,842 421,842 Z M423,720 C589.23771,720 724,585.23771 724,419 C724,252.76229 589.23771,118 423,118 C256.76229,118 122,252.76229 122,419 C122,585.23771 256.76229,720 423,720 Z" id="path-7"></path>
        <path d="M421,842 C188.48812,842 0,653.51188 0,421 C0,188.48812 188.48812,0 421,0 C653.51188,0 842,188.48812 842,421 C842,653.51188 653.51188,842 421,842 Z M423,720 C589.23771,720 724,585.23771 724,419 C724,252.76229 589.23771,118 423,118 C256.76229,118 122,252.76229 122,419 C122,585.23771 256.76229,720 423,720 Z" id="path-9"></path>
    </defs>
    <g id="Page-1" stroke="none" stroke-width="1" fill="none" fill-rule="evenodd">
        <g id="color-schemes">
            <g id="monochromatic" transform="translate(32.000000, 139.000000)">
                <mask id="mask-2" fill="white">
                    <use xlink:href="#path-1"></use>
                </mask>
                <g id="Combined-Shape">
                    <use fill-opacity="0.200000018" fill="#D8D8D8" fill-rule="evenodd" xlink:href="#path-1"></use>
                    <path stroke="#FFFFFF" stroke-width="5" d="M421,844.5 C187.107408,844.5 -2.5,654.892592 -2.5,421 C-2.5,187.107408 187.107408,-2.5 421,-2.5 C654.892592,-2.5 844.5,187.107408 844.5,421 C844.5,654.892592 654.892592,844.5 421,844.5 Z M423,546.5 C493.416306,546.5 550.5,489.416306 550.5,419 C550.5,348.583694 493.416306,291.5 423,291.5 C352.583694,291.5 295.5,348.583694 295.5,419 C295.5,489.416306 352.583694,546.5 423,546.5 Z"></path>
                </g>
                <g id="Group" mask="url(#mask-2)" stroke="#FFFFFF" stroke-width="5">
                    <g transform="translate(-110.000000, -111.000000)" id="Path-2">
                        <polygon fill="#59189F" points="533 533 215.5 215.5 101.5 416.5"></polygon>
                        <polygon fill="#B5287A" transform="translate(425.463032, 287.893467) rotate(-330.000000) translate(-425.463032, -287.893467) " points="641.213032 446.643467 323.713032 129.143467 209.713032 330.143467"></polygon>
                        <polygon fill="#EB3323" transform="translate(562.539546, 267.030019) rotate(-300.000000) translate(-562.539546, -267.030019) " points="778.289546 425.780019 460.789546 108.280019 346.789546 309.280019"></polygon>
                        <polygon fill="#EE6F2D" transform="translate(690.133975, 317.183013) rotate(-270.000000) translate(-690.133975, -317.183013) " points="905.883975 475.933013 588.383975 158.433013 474.383975 359.433013"></polygon>
                        <polygon fill="#F19837" transform="translate(776.374482, 424.829057) rotate(-240.000000) translate(-776.374482, -424.829057) " points="992.124482 583.579057 674.624482 266.079057 560.624482 467.079057"></polygon>
                        <polygon fill="#F6C644" transform="translate(797.420943, 561.356533) rotate(-210.000000) translate(-797.420943, -561.356533) " points="1013.17094 720.106533 695.670943 402.606533 581.670943 603.606533"></polygon>
                        <polygon fill="#FFFD54" transform="translate(747.334936, 690.933013) rotate(-180.000000) translate(-747.334936, -690.933013) " points="963.084936 849.683013 645.584936 532.183013 531.584936 733.183013"></polygon>
                        <polygon fill="#99C43C" transform="translate(639.554917, 777.673520) rotate(-150.000000) translate(-639.554917, -777.673520) " points="855.304917 936.42352 537.804917 618.92352 423.804917 819.92352"></polygon>
                        <polygon fill="#4FA931" transform="translate(503.210454, 798.170943) rotate(-120.000000) translate(-503.210454, -798.170943) " points="718.960454 956.920943 401.460454 639.420943 287.460454 840.420943"></polygon>
                        <polygon fill="#45A1C3" transform="translate(374.017949, 748.517949) rotate(-90.000000) translate(-374.017949, -748.517949) " points="589.767949 907.267949 272.267949 589.767949 158.267949 790.767949"></polygon>
                        <polygon fill="#2564AF" transform="translate(287.527442, 640.804917) rotate(-60.000000) translate(-287.527442, -640.804917) " points="503.277442 799.554917 185.777442 482.054917 71.7774417 683.054917"></polygon>
                        <polygon fill="#001A9E" transform="translate(266.297968, 504.094429) rotate(-30.000000) translate(-266.297968, -504.094429) " points="482.047968 662.844429 164.547968 345.344429 50.5479683 546.344429"></polygon>
                    </g>
                </g>
                <g id="Oval" mask="url(#mask-2)">
                    <use fill-opacity="0.4" fill="#FFFFFF" fill-rule="evenodd" xlink:href="#path-3"></use>
                    <circle stroke="#FFFFFF" stroke-width="5" cx="423" cy="419" r="303.5"></circle>
                </g>
                <g id="Oval" mask="url(#mask-2)">
                    <use fill-opacity="0.5" fill="#FFFFFF" fill-rule="evenodd" xlink:href="#path-4"></use>
                    <circle stroke="#FFFFFF" stroke-width="5" cx="423" cy="419" r="203.5"></circle>
                </g>
            </g>
            <g id="complementary" transform="translate(1018.000000, 139.000000)">
                <mask id="mask-6" fill="white">
                    <use xlink:href="#path-5"></use>
                </mask>
                <g id="Mask">
                    <use fill="#D8D8D8" fill-rule="evenodd" xlink:href="#path-5"></use>
                    <path stroke="#FFFFFF" stroke-width="5" d="M421,844.5 C187.107408,844.5 -2.5,654.892592 -2.5,421 C-2.5,187.107408 187.107408,-2.5 421,-2.5 C654.892592,-2.5 844.5,187.107408 844.5,421 C844.5,654.892592 654.892592,844.5 421,844.5 Z M423,717.5 C587.856998,717.5 721.5,583.856998 721.5,419 C721.5,254.143002 587.856998,120.5 423,120.5 C258.143002,120.5 124.5,254.143002 124.5,419 C124.5,583.856998 258.143002,717.5 423,717.5 Z"></path>
                </g>
                <g id="Group" mask="url(#mask-6)" stroke="#FFFFFF" stroke-width="5">
                    <g transform="translate(-110.000000, -111.000000)" id="Path-2">
                        <polygon fill="#59189F" points="533 533 215.5 215.5 101.5 416.5"></polygon>
                        <polygon fill="#B5287A" transform="translate(425.463032, 287.893467) rotate(-330.000000) translate(-425.463032, -287.893467) " points="641.213032 446.643467 323.713032 129.143467 209.713032 330.143467"></polygon>
                        <polygon fill="#EB3323" transform="translate(562.539546, 267.030019) rotate(-300.000000) translate(-562.539546, -267.030019) " points="778.289546 425.780019 460.789546 108.280019 346.789546 309.280019"></polygon>
                        <polygon fill="#EE6F2D" transform="translate(690.133975, 317.183013) rotate(-270.000000) translate(-690.133975, -317.183013) " points="905.883975 475.933013 588.383975 158.433013 474.383975 359.433013"></polygon>
                        <polygon fill="#F19837" transform="translate(776.374482, 424.829057) rotate(-240.000000) translate(-776.374482, -424.829057) " points="992.124482 583.579057 674.624482 266.079057 560.624482 467.079057"></polygon>
                        <polygon fill="#F6C644" transform="translate(797.420943, 561.356533) rotate(-210.000000) translate(-797.420943, -561.356533) " points="1013.17094 720.106533 695.670943 402.606533 581.670943 603.606533"></polygon>
                        <polygon fill="#FFFD54" transform="translate(747.334936, 690.933013) rotate(-180.000000) translate(-747.334936, -690.933013) " points="963.084936 849.683013 645.584936 532.183013 531.584936 733.183013"></polygon>
                        <polygon fill="#99C43C" transform="translate(639.554917, 777.673520) rotate(-150.000000) translate(-639.554917, -777.673520) " points="855.304917 936.42352 537.804917 618.92352 423.804917 819.92352"></polygon>
                        <polygon fill="#4FA931" transform="translate(503.210454, 798.170943) rotate(-120.000000) translate(-503.210454, -798.170943) " points="718.960454 956.920943 401.460454 639.420943 287.460454 840.420943"></polygon>
                        <polygon fill="#45A1C3" transform="translate(374.017949, 748.517949) rotate(-90.000000) translate(-374.017949, -748.517949) " points="589.767949 907.267949 272.267949 589.767949 158.267949 790.767949"></polygon>
                        <polygon fill="#2564AF" transform="translate(287.527442, 640.804917) rotate(-60.000000) translate(-287.527442, -640.804917) " points="503.277442 799.554917 185.777442 482.054917 71.7774417 683.054917"></polygon>
                        <polygon fill="#001A9E" transform="translate(266.297968, 504.094429) rotate(-30.000000) translate(-266.297968, -504.094429) " points="482.047968 662.844429 164.547968 345.344429 50.5479683 546.344429"></polygon>
                    </g>
                </g>
            </g>
            <g id="analogous" transform="translate(32.000000, 1221.000000)">
                <mask id="mask-8" fill="white">
                    <use xlink:href="#path-7"></use>
                </mask>
                <g id="Mask">
                    <use fill="#D8D8D8" fill-rule="evenodd" xlink:href="#path-7"></use>
                    <path stroke="#FFFFFF" stroke-width="5" d="M421,844.5 C187.107408,844.5 -2.5,654.892592 -2.5,421 C-2.5,187.107408 187.107408,-2.5 421,-2.5 C654.892592,-2.5 844.5,187.107408 844.5,421 C844.5,654.892592 654.892592,844.5 421,844.5 Z M423,717.5 C587.856998,717.5 721.5,583.856998 721.5,419 C721.5,254.143002 587.856998,120.5 423,120.5 C258.143002,120.5 124.5,254.143002 124.5,419 C124.5,583.856998 258.143002,717.5 423,717.5 Z"></path>
                </g>
                <g id="Group" mask="url(#mask-8)" stroke="#FFFFFF" stroke-width="5">
                    <g transform="translate(-110.000000, -111.000000)" id="Path-2">
                        <polygon fill="#59189F" points="533 533 215.5 215.5 101.5 416.5"></polygon>
                        <polygon fill="#B5287A" transform="translate(425.463032, 287.893467) rotate(-330.000000) translate(-425.463032, -287.893467) " points="641.213032 446.643467 323.713032 129.143467 209.713032 330.143467"></polygon>
                        <polygon fill="#EB3323" transform="translate(562.539546, 267.030019) rotate(-300.000000) translate(-562.539546, -267.030019) " points="778.289546 425.780019 460.789546 108.280019 346.789546 309.280019"></polygon>
                        <polygon fill="#EE6F2D" transform="translate(690.133975, 317.183013) rotate(-270.000000) translate(-690.133975, -317.183013) " points="905.883975 475.933013 588.383975 158.433013 474.383975 359.433013"></polygon>
                        <polygon fill="#F19837" transform="translate(776.374482, 424.829057) rotate(-240.000000) translate(-776.374482, -424.829057) " points="992.124482 583.579057 674.624482 266.079057 560.624482 467.079057"></polygon>
                        <polygon fill="#F6C644" transform="translate(797.420943, 561.356533) rotate(-210.000000) translate(-797.420943, -561.356533) " points="1013.17094 720.106533 695.670943 402.606533 581.670943 603.606533"></polygon>
                        <polygon fill="#FFFD54" transform="translate(747.334936, 690.933013) rotate(-180.000000) translate(-747.334936, -690.933013) " points="963.084936 849.683013 645.584936 532.183013 531.584936 733.183013"></polygon>
                        <polygon fill="#99C43C" transform="translate(639.554917, 777.673520) rotate(-150.000000) translate(-639.554917, -777.673520) " points="855.304917 936.42352 537.804917 618.92352 423.804917 819.92352"></polygon>
                        <polygon fill="#4FA931" transform="translate(503.210454, 798.170943) rotate(-120.000000) translate(-503.210454, -798.170943) " points="718.960454 956.920943 401.460454 639.420943 287.460454 840.420943"></polygon>
                        <polygon fill="#45A1C3" transform="translate(374.017949, 748.517949) rotate(-90.000000) translate(-374.017949, -748.517949) " points="589.767949 907.267949 272.267949 589.767949 158.267949 790.767949"></polygon>
                        <polygon fill="#2564AF" transform="translate(287.527442, 640.804917) rotate(-60.000000) translate(-287.527442, -640.804917) " points="503.277442 799.554917 185.777442 482.054917 71.7774417 683.054917"></polygon>
                        <polygon fill="#001A9E" transform="translate(266.297968, 504.094429) rotate(-30.000000) translate(-266.297968, -504.094429) " points="482.047968 662.844429 164.547968 345.344429 50.5479683 546.344429"></polygon>
                    </g>
                </g>
            </g>
            <g id="triadic" transform="translate(1018.000000, 1221.000000)">
                <mask id="mask-10" fill="white">
                    <use xlink:href="#path-9"></use>
                </mask>
                <g id="Mask">
                    <use fill="#D8D8D8" fill-rule="evenodd" xlink:href="#path-9"></use>
                    <path stroke="#FFFFFF" stroke-width="5" d="M421,844.5 C187.107408,844.5 -2.5,654.892592 -2.5,421 C-2.5,187.107408 187.107408,-2.5 421,-2.5 C654.892592,-2.5 844.5,187.107408 844.5,421 C844.5,654.892592 654.892592,844.5 421,844.5 Z M423,717.5 C587.856998,717.5 721.5,583.856998 721.5,419 C721.5,254.143002 587.856998,120.5 423,120.5 C258.143002,120.5 124.5,254.143002 124.5,419 C124.5,583.856998 258.143002,717.5 423,717.5 Z"></path>
                </g>
                <g id="Group" mask="url(#mask-10)" stroke="#FFFFFF" stroke-width="5">
                    <g transform="translate(-110.000000, -111.000000)" id="Path-2">
                        <polygon fill="#59189F" points="533 533 215.5 215.5 101.5 416.5"></polygon>
                        <polygon fill="#B5287A" transform="translate(425.463032, 287.893467) rotate(-330.000000) translate(-425.463032, -287.893467) " points="641.213032 446.643467 323.713032 129.143467 209.713032 330.143467"></polygon>
                        <polygon fill="#EB3323" transform="translate(562.539546, 267.030019) rotate(-300.000000) translate(-562.539546, -267.030019) " points="778.289546 425.780019 460.789546 108.280019 346.789546 309.280019"></polygon>
                        <polygon fill="#EE6F2D" transform="translate(690.133975, 317.183013) rotate(-270.000000) translate(-690.133975, -317.183013) " points="905.883975 475.933013 588.383975 158.433013 474.383975 359.433013"></polygon>
                        <polygon fill="#F19837" transform="translate(776.374482, 424.829057) rotate(-240.000000) translate(-776.374482, -424.829057) " points="992.124482 583.579057 674.624482 266.079057 560.624482 467.079057"></polygon>
                        <polygon fill="#F6C644" transform="translate(797.420943, 561.356533) rotate(-210.000000) translate(-797.420943, -561.356533) " points="1013.17094 720.106533 695.670943 402.606533 581.670943 603.606533"></polygon>
                        <polygon fill="#FFFD54" transform="translate(747.334936, 690.933013) rotate(-180.000000) translate(-747.334936, -690.933013) " points="963.084936 849.683013 645.584936 532.183013 531.584936 733.183013"></polygon>
                        <polygon fill="#99C43C" transform="translate(639.554917, 777.673520) rotate(-150.000000) translate(-639.554917, -777.673520) " points="855.304917 936.42352 537.804917 618.92352 423.804917 819.92352"></polygon>
                        <polygon fill="#4FA931" transform="translate(503.210454, 798.170943) rotate(-120.000000) translate(-503.210454, -798.170943) " points="718.960454 956.920943 401.460454 639.420943 287.460454 840.420943"></polygon>
                        <polygon fill="#45A1C3" transform="translate(374.017949, 748.517949) rotate(-90.000000) translate(-374.017949, -748.517949) " points="589.767949 907.267949 272.267949 589.767949 158.267949 790.767949"></polygon>
                        <polygon fill="#2564AF" transform="translate(287.527442, 640.804917) rotate(-60.000000) translate(-287.527442, -640.804917) " points="503.277442 799.554917 185.777442 482.054917 71.7774417 683.054917"></polygon>
                        <polygon fill="#001A9E" transform="translate(266.297968, 504.094429) rotate(-30.000000) translate(-266.297968, -504.094429) " points="482.047968 662.844429 164.547968 345.344429 50.5479683 546.344429"></polygon>
                    </g>
                </g>
            </g>
            <path d="M285.505,85 L285.505,54.985 L276.505,54.985 L269.215,73.12 L261.925,54.985 L252.97,54.985 L252.97,85 L259.36,85 L259.36,63.985 L267.82,85 L270.61,85 L279.07,63.985 L279.07,85 L285.505,85 Z M305.665,85.54 C296.62,85.54 290.005,79.06 290.005,70.015 C290.005,60.97 296.62,54.49 305.665,54.49 C314.755,54.49 321.37,60.97 321.37,70.015 C321.37,79.06 314.755,85.54 305.665,85.54 Z M305.665,79.87 C311.2,79.87 314.8,75.595 314.8,70.015 C314.8,64.39 311.2,60.16 305.665,60.16 C300.13,60.16 296.575,64.39 296.575,70.015 C296.575,75.595 300.13,79.87 305.665,79.87 Z M352.735,85 L352.735,54.985 L346.345,54.985 L346.345,73.84 L332.44,54.985 L325.87,54.985 L325.87,85 L332.26,85 L332.26,65.425 L346.57,85 L352.735,85 Z M372.895,85.54 C363.85,85.54 357.235,79.06 357.235,70.015 C357.235,60.97 363.85,54.49 372.895,54.49 C381.985,54.49 388.6,60.97 388.6,70.015 C388.6,79.06 381.985,85.54 372.895,85.54 Z M372.895,79.87 C378.43,79.87 382.03,75.595 382.03,70.015 C382.03,64.39 378.43,60.16 372.895,60.16 C367.36,60.16 363.805,64.39 363.805,70.015 C363.805,75.595 367.36,79.87 372.895,79.87 Z M407.635,85.54 C414.25,85.54 418.03,81.895 420.19,78.16 L414.7,75.505 C413.44,77.98 410.74,79.87 407.635,79.87 C402.19,79.87 398.23,75.685 398.23,70.015 C398.23,64.345 402.19,60.16 407.635,60.16 C410.74,60.16 413.44,62.095 414.7,64.525 L420.19,61.825 C418.075,58.09 414.25,54.49 407.635,54.49 C398.635,54.49 391.66,60.79 391.66,70.015 C391.66,79.24 398.635,85.54 407.635,85.54 Z M451.015,85 L451.015,54.985 L444.58,54.985 L444.58,66.775 L430.405,66.775 L430.405,54.985 L424.015,54.985 L424.015,85 L430.405,85 L430.405,72.4 L444.58,72.4 L444.58,85 L451.015,85 Z M481.21,85 L473.875,85 L467.98,74.335 L463.3,74.335 L463.3,85 L456.91,85 L456.91,54.985 L470.95,54.985 C477.205,54.985 481.03,59.08 481.03,64.66 C481.03,69.97 477.7,72.805 474.46,73.57 L481.21,85 Z M470.005,68.71 C472.57,68.71 474.505,67.18 474.505,64.66 C474.505,62.14 472.57,60.61 470.005,60.61 L463.3,60.61 L463.3,68.71 L470.005,68.71 Z M500.065,85.54 C491.02,85.54 484.405,79.06 484.405,70.015 C484.405,60.97 491.02,54.49 500.065,54.49 C509.155,54.49 515.77,60.97 515.77,70.015 C515.77,79.06 509.155,85.54 500.065,85.54 Z M500.065,79.87 C505.6,79.87 509.2,75.595 509.2,70.015 C509.2,64.39 505.6,60.16 500.065,60.16 C494.53,60.16 490.975,64.39 490.975,70.015 C490.975,75.595 494.53,79.87 500.065,79.87 Z M552.805,85 L552.805,54.985 L543.805,54.985 L536.515,73.12 L529.225,54.985 L520.27,54.985 L520.27,85 L526.66,85 L526.66,63.985 L535.12,85 L537.91,85 L546.37,63.985 L546.37,85 L552.805,85 Z M586.735,85 L579.445,85 L577.6,79.915 L564.73,79.915 L562.84,85 L555.55,85 L567.16,54.985 L575.17,54.985 L586.735,85 Z M575.845,74.29 L571.165,61.375 L566.485,74.29 L575.845,74.29 Z M602.89,85 L602.89,60.61 L611.62,60.61 L611.62,54.985 L587.68,54.985 L587.68,60.61 L596.455,60.61 L596.455,85 L602.89,85 Z M622.105,85 L622.105,54.985 L615.715,54.985 L615.715,85 L622.105,85 Z M642.58,85.54 C649.195,85.54 652.975,81.895 655.135,78.16 L649.645,75.505 C648.385,77.98 645.685,79.87 642.58,79.87 C637.135,79.87 633.175,75.685 633.175,70.015 C633.175,64.345 637.135,60.16 642.58,60.16 C645.685,60.16 648.385,62.095 649.645,64.525 L655.135,61.825 C653.02,58.09 649.195,54.49 642.58,54.49 C633.58,54.49 626.605,60.79 626.605,70.015 C626.605,79.24 633.58,85.54 642.58,85.54 Z" id="MONOCHROMATIC" fill="#FFFFFF"></path>
            <path d="M343.96,1174 L336.67,1174 L334.825,1168.915 L321.955,1168.915 L320.065,1174 L312.775,1174 L324.385,1143.985 L332.395,1143.985 L343.96,1174 Z M333.07,1163.29 L328.39,1150.375 L323.71,1163.29 L333.07,1163.29 Z M373.615,1174 L373.615,1143.985 L367.225,1143.985 L367.225,1162.84 L353.32,1143.985 L346.75,1143.985 L346.75,1174 L353.14,1174 L353.14,1154.425 L367.45,1174 L373.615,1174 Z M407.545,1174 L400.255,1174 L398.41,1168.915 L385.54,1168.915 L383.65,1174 L376.36,1174 L387.97,1143.985 L395.98,1143.985 L407.545,1174 Z M396.655,1163.29 L391.975,1150.375 L387.295,1163.29 L396.655,1163.29 Z M429.415,1174 L429.415,1168.375 L416.725,1168.375 L416.725,1143.985 L410.335,1143.985 L410.335,1174 L429.415,1174 Z M448.09,1174.54 C439.045,1174.54 432.43,1168.06 432.43,1159.015 C432.43,1149.97 439.045,1143.49 448.09,1143.49 C457.18,1143.49 463.795,1149.97 463.795,1159.015 C463.795,1168.06 457.18,1174.54 448.09,1174.54 Z M448.09,1168.87 C453.625,1168.87 457.225,1164.595 457.225,1159.015 C457.225,1153.39 453.625,1149.16 448.09,1149.16 C442.555,1149.16 439,1153.39 439,1159.015 C439,1164.595 442.555,1168.87 448.09,1168.87 Z M482.83,1174.585 C488.275,1174.585 492.55,1172.335 495.61,1168.915 L495.61,1157.395 L481.3,1157.395 L481.3,1162.975 L489.22,1162.975 L489.22,1166.575 C488.005,1167.7 485.485,1168.87 482.83,1168.87 C477.385,1168.87 473.425,1164.685 473.425,1159.015 C473.425,1153.345 477.385,1149.16 482.83,1149.16 C486.025,1149.16 488.59,1150.96 489.94,1153.075 L495.25,1150.195 C493,1146.64 489.085,1143.49 482.83,1143.49 C474.055,1143.49 466.855,1149.52 466.855,1159.015 C466.855,1168.465 474.055,1174.585 482.83,1174.585 Z M514.915,1174.54 C505.87,1174.54 499.255,1168.06 499.255,1159.015 C499.255,1149.97 505.87,1143.49 514.915,1143.49 C524.005,1143.49 530.62,1149.97 530.62,1159.015 C530.62,1168.06 524.005,1174.54 514.915,1174.54 Z M514.915,1168.87 C520.45,1168.87 524.05,1164.595 524.05,1159.015 C524.05,1153.39 520.45,1149.16 514.915,1149.16 C509.38,1149.16 505.825,1153.39 505.825,1159.015 C505.825,1164.595 509.38,1168.87 514.915,1168.87 Z M548.665,1174.54 C557.8,1174.54 562.21,1169.455 562.21,1161.985 L562.21,1143.985 L555.685,1143.985 L555.685,1161.805 C555.685,1165.99 553.3,1168.87 548.665,1168.87 C544.03,1168.87 541.6,1165.99 541.6,1161.805 L541.6,1143.985 L535.12,1143.985 L535.12,1162.03 C535.12,1169.41 539.53,1174.54 548.665,1174.54 Z M578.77,1174.54 C586.87,1174.54 590.785,1170.4 590.785,1164.91 C590.785,1153.705 573.55,1156.9 573.55,1152.13 C573.55,1150.33 575.08,1149.115 577.825,1149.115 C580.885,1149.115 584.125,1150.15 586.555,1152.4 L590.11,1147.72 C587.14,1144.975 583.18,1143.535 578.41,1143.535 C571.345,1143.535 567.025,1147.675 567.025,1152.67 C567.025,1163.965 584.305,1160.32 584.305,1165.63 C584.305,1167.34 582.595,1168.96 579.085,1168.96 C574.945,1168.96 571.66,1167.115 569.545,1164.91 L566.08,1169.77 C568.87,1172.605 573.01,1174.54 578.77,1174.54 Z" id="ANALOGOUS" fill="#FFFFFF"></path>
            <path d="M1371.335,1174 L1371.335,1149.61 L1380.065,1149.61 L1380.065,1143.985 L1356.125,1143.985 L1356.125,1149.61 L1364.9,1149.61 L1364.9,1174 L1371.335,1174 Z M1408.46,1174 L1401.125,1174 L1395.23,1163.335 L1390.55,1163.335 L1390.55,1174 L1384.16,1174 L1384.16,1143.985 L1398.2,1143.985 C1404.455,1143.985 1408.28,1148.08 1408.28,1153.66 C1408.28,1158.97 1404.95,1161.805 1401.71,1162.57 L1408.46,1174 Z M1397.255,1157.71 C1399.82,1157.71 1401.755,1156.18 1401.755,1153.66 C1401.755,1151.14 1399.82,1149.61 1397.255,1149.61 L1390.55,1149.61 L1390.55,1157.71 L1397.255,1157.71 Z M1419.485,1174 L1419.485,1143.985 L1413.095,1143.985 L1413.095,1174 L1419.485,1174 Z M1453.415,1174 L1446.125,1174 L1444.28,1168.915 L1431.41,1168.915 L1429.52,1174 L1422.23,1174 L1433.84,1143.985 L1441.85,1143.985 L1453.415,1174 Z M1442.525,1163.29 L1437.845,1150.375 L1433.165,1163.29 L1442.525,1163.29 Z M1468.04,1174 L1456.205,1174 L1456.205,1143.985 L1468.04,1143.985 C1477.445,1143.985 1483.97,1149.97 1483.97,1159.015 C1483.97,1168.06 1477.445,1174 1468.04,1174 Z M1468.04,1168.375 C1473.98,1168.375 1477.445,1164.1 1477.445,1159.015 C1477.445,1153.705 1474.205,1149.61 1468.04,1149.61 L1462.595,1149.61 L1462.595,1168.375 L1468.04,1168.375 Z M1494.905,1174 L1494.905,1143.985 L1488.515,1143.985 L1488.515,1174 L1494.905,1174 Z M1515.38,1174.54 C1521.995,1174.54 1525.775,1170.895 1527.935,1167.16 L1522.445,1164.505 C1521.185,1166.98 1518.485,1168.87 1515.38,1168.87 C1509.935,1168.87 1505.975,1164.685 1505.975,1159.015 C1505.975,1153.345 1509.935,1149.16 1515.38,1149.16 C1518.485,1149.16 1521.185,1151.095 1522.445,1153.525 L1527.935,1150.825 C1525.82,1147.09 1521.995,1143.49 1515.38,1143.49 C1506.38,1143.49 1499.405,1149.79 1499.405,1159.015 C1499.405,1168.24 1506.38,1174.54 1515.38,1174.54 Z" id="TRIADIC" fill="#FFFFFF"></path>
            <path d="M1259.505,85.54 C1266.12,85.54 1269.9,81.895 1272.06,78.16 L1266.57,75.505 C1265.31,77.98 1262.61,79.87 1259.505,79.87 C1254.06,79.87 1250.1,75.685 1250.1,70.015 C1250.1,64.345 1254.06,60.16 1259.505,60.16 C1262.61,60.16 1265.31,62.095 1266.57,64.525 L1272.06,61.825 C1269.945,58.09 1266.12,54.49 1259.505,54.49 C1250.505,54.49 1243.53,60.79 1243.53,70.015 C1243.53,79.24 1250.505,85.54 1259.505,85.54 Z M1290.105,85.54 C1281.06,85.54 1274.445,79.06 1274.445,70.015 C1274.445,60.97 1281.06,54.49 1290.105,54.49 C1299.195,54.49 1305.81,60.97 1305.81,70.015 C1305.81,79.06 1299.195,85.54 1290.105,85.54 Z M1290.105,79.87 C1295.64,79.87 1299.24,75.595 1299.24,70.015 C1299.24,64.39 1295.64,60.16 1290.105,60.16 C1284.57,60.16 1281.015,64.39 1281.015,70.015 C1281.015,75.595 1284.57,79.87 1290.105,79.87 Z M1342.845,85 L1342.845,54.985 L1333.845,54.985 L1326.555,73.12 L1319.265,54.985 L1310.31,54.985 L1310.31,85 L1316.7,85 L1316.7,63.985 L1325.16,85 L1327.95,85 L1336.41,63.985 L1336.41,85 L1342.845,85 Z M1355.175,85 L1348.785,85 L1348.785,54.985 L1362.825,54.985 C1369.35,54.985 1372.905,59.395 1372.905,64.66 C1372.905,69.88 1369.305,74.335 1362.825,74.335 L1355.175,74.335 L1355.175,85 Z M1361.97,68.71 C1364.49,68.71 1366.38,67.135 1366.38,64.66 C1366.38,62.14 1364.49,60.61 1361.97,60.61 L1355.175,60.61 L1355.175,68.71 L1361.97,68.71 Z M1395.945,85 L1395.945,79.375 L1383.255,79.375 L1383.255,54.985 L1376.865,54.985 L1376.865,85 L1395.945,85 Z M1421.64,85 L1421.64,79.375 L1406.79,79.375 L1406.79,72.58 L1421.325,72.58 L1421.325,66.955 L1406.79,66.955 L1406.79,60.61 L1421.64,60.61 L1421.64,54.985 L1400.4,54.985 L1400.4,85 L1421.64,85 Z M1459.17,85 L1459.17,54.985 L1450.17,54.985 L1442.88,73.12 L1435.59,54.985 L1426.635,54.985 L1426.635,85 L1433.025,85 L1433.025,63.985 L1441.485,85 L1444.275,85 L1452.735,63.985 L1452.735,85 L1459.17,85 Z M1486.35,85 L1486.35,79.375 L1471.5,79.375 L1471.5,72.58 L1486.035,72.58 L1486.035,66.955 L1471.5,66.955 L1471.5,60.61 L1486.35,60.61 L1486.35,54.985 L1465.11,54.985 L1465.11,85 L1486.35,85 Z M1518.21,85 L1518.21,54.985 L1511.82,54.985 L1511.82,73.84 L1497.915,54.985 L1491.345,54.985 L1491.345,85 L1497.735,85 L1497.735,65.425 L1512.045,85 L1518.21,85 Z M1537.515,85 L1537.515,60.61 L1546.245,60.61 L1546.245,54.985 L1522.305,54.985 L1522.305,60.61 L1531.08,60.61 L1531.08,85 L1537.515,85 Z M1578.33,85 L1571.04,85 L1569.195,79.915 L1556.325,79.915 L1554.435,85 L1547.145,85 L1558.755,54.985 L1566.765,54.985 L1578.33,85 Z M1567.44,74.29 L1562.76,61.375 L1558.08,74.29 L1567.44,74.29 Z M1605.42,85 L1598.085,85 L1592.19,74.335 L1587.51,74.335 L1587.51,85 L1581.12,85 L1581.12,54.985 L1595.16,54.985 C1601.415,54.985 1605.24,59.08 1605.24,64.66 C1605.24,69.97 1601.91,72.805 1598.67,73.57 L1605.42,85 Z M1594.215,68.71 C1596.78,68.71 1598.715,67.18 1598.715,64.66 C1598.715,62.14 1596.78,60.61 1594.215,60.61 L1587.51,60.61 L1587.51,68.71 L1594.215,68.71 Z M1624.815,85 L1624.815,72.715 L1636.29,54.985 L1629,54.985 L1621.62,67.045 L1614.15,54.985 L1606.86,54.985 L1618.425,72.715 L1618.425,85 L1624.815,85 Z" id="COMPLEMENTARY" fill="#FFFFFF"></path>
            <g id="Group-2" transform="translate(1147.000000, 381.000000)" stroke-width="10">
                <circle id="Oval-2" stroke="#333333" cx="31.5" cy="328.5" r="31.5"></circle>
                <circle id="Oval-2" stroke="#333333" cx="558.5" cy="31.5" r="31.5"></circle>
                <path d="M58.5,308.5 L531.5,47.5" id="Line" stroke="#000000" stroke-linecap="square"></path>
            </g>
            <g id="Group-2" transform="translate(1472.000000, 1578.500000) rotate(-330.000000) translate(-1472.000000, -1578.500000) translate(1178.000000, 1321.000000)" stroke-width="10">
                <circle id="Oval-2" stroke="#333333" cx="31.5" cy="483.5" r="31.5"></circle>
                <circle id="Oval-2" stroke="#333333" cx="295.5" cy="31.5" r="31.5"></circle>
                <circle id="Oval-2" stroke="#333333" cx="556.5" cy="483.5" r="31.5"></circle>
                <path d="M58.5,463.5 L296,67" id="Line" stroke="#000000" stroke-linecap="square"></path>
                <path d="M58.5,463.5 L530.076611,463.5" id="Line" stroke="#000000" stroke-linecap="square"></path>
                <path d="M299,65 L530.076611,463.5" id="Line" stroke="#000000" stroke-linecap="square"></path>
            </g>
            <g id="Group-2" transform="translate(311.397367, 1879.976458) rotate(-330.000000) translate(-311.397367, -1879.976458) translate(129.397367, 1827.476458)" stroke-width="10">
                <circle id="Oval-2" stroke="#333333" cx="32.0621778" cy="31.5980762" r="31.5"></circle>
                <circle id="Oval-2" stroke="#333333" cx="332.5" cy="32.5" r="31.5"></circle>
                <circle id="Oval-2" stroke="#333333" cx="189.267949" cy="73.2942286" r="31.5"></circle>
                <path d="M62.6631767,40.5972931 L155.784955,61.8889443" id="Line" stroke="#000000" stroke-linecap="square"></path>
                <path d="M220.782378,62.4677826 L302.06441,43.2523923" id="Line" stroke="#000000" stroke-linecap="square"></path>
            </g>
        </g>
    </g>
</svg>